# xmcd
#
# Track frame offsets: 
#        150
#        21520
#        39541
#        45558
#        62566
#        76292
#        89328
#        106186
#        124496
#        144395
#        159907
#        178814
#        197304
#
# Disc length: 2683 seconds
#
# Revision: 0
# Processed by: cddbd v1.4PL0 Copyright (c) Steve Scherf et al.
# Submitted via: ExactAudioCopy v0.90b4
#
DISCID=a60a790d
DTITLE=Soledad Brothers - Steal Your Soul and Dare Your Spirit to Move
DYEAR=2002
DGENRE=Blues
TTITLE0=Prince Among Thieves
TTITLE1=Prodical Stones Blues
TTITLE2=This Guitar Says I'm Sorry
TTITLE3=Break 'em on Down
TTITLE4=Nation's Bell
TTITLE5=Hammer Me Down
TTITLE6=Michigan Line
TTITLE7=32 Blues
TTITLE8=Ray of Love
TTITLE9=Skidmore Blues
TTITLE10=Miracle Birth
TTITLE11=There's No Sunshine When She's Gone
TTITLE12=Good Friday
EXTD=
EXTT0=
EXTT1=
EXTT2=
EXTT3=
EXTT4=
EXTT5=
EXTT6=
EXTT7=
EXTT8=
EXTT9=
EXTT10=
EXTT11=
EXTT12=
PLAYORDER=
